<svg xmlns="http://www.w3.org/2000/svg" viewBox="0 0 38 56"><defs><style>.cls-1{fill:none;stroke:#FFFFFF;stroke-miterlimit:10;stroke-width:3px;}</style></defs><g id="Layer_2" data-name="Layer 2"><g id="Layer_1-2" data-name="Layer 1"><path class="cls-1" d="M11.5,11.5V23h-5a5,5,0,0,0-5,5V6.5a5,5,0,0,0,5,5Z"/><path class="cls-1" d="M36.5,17.25C36.5,26,29.78,33,21.5,33H6.5a5,5,0,0,1,0-10h15a5.75,5.75,0,0,0,0-11.5H6.5a5,5,0,0,1,0-10h15C29.78,1.5,36.5,8.55,36.5,17.25Z"/><path class="cls-1" d="M11.5,33V49.5a5,5,0,0,1-10,0V28a5,5,0,0,0,5,5Z"/><line class="cls-1" x1="1.5" y1="50.5" x2="1.5" y2="49.5"/><path class="cls-1" d="M27.25,17.25A5.74,5.74,0,0,1,21.5,23h-10V11.5h10A5.74,5.74,0,0,1,27.25,17.25Z"/><path class="cls-1" d="M27.25,17.25A5.74,5.74,0,0,1,21.5,23h-10V11.5h10A5.74,5.74,0,0,1,27.25,17.25Z"/></g></g></svg>